<svg width="19" height="18" viewBox="0 0 19 18" fill="none" xmlns="http://www.w3.org/2000/svg">
<g id="Group">
<path id="Vector" d="M8.99996 0.750009H9.36021C8.18261 1.84424 7.42567 3.31653 7.22098 4.91096C7.01629 6.50539 7.37678 8.12114 8.2398 9.47735C9.10282 10.8336 10.4138 11.8445 11.9448 12.3344C13.4759 12.8242 15.1302 12.7621 16.6202 12.1588C16.047 13.538 15.1103 14.7356 13.9098 15.6241C12.7093 16.5125 11.2902 17.0585 9.80379 17.2036C8.31739 17.3488 6.81945 17.0877 5.46978 16.4483C4.1201 15.8089 2.96932 14.8151 2.14017 13.5729C1.31102 12.3307 0.834618 10.8868 0.761774 9.39507C0.68893 7.90336 1.02238 6.41986 1.72655 5.10281C2.43073 3.78576 3.47921 2.68456 4.76016 1.91668C6.04111 1.1488 7.50649 0.743036 8.99996 0.742676V0.750009Z" stroke="#64748B" stroke-width="1.5" stroke-linecap="round" stroke-linejoin="round"/>
<path id="Vector_2" d="M13.5833 1.66669C13.5833 2.15292 13.7765 2.61923 14.1203 2.96305C14.4641 3.30687 14.9304 3.50002 15.4167 3.50002C14.9304 3.50002 14.4641 3.69317 14.1203 4.03699C13.7765 4.38081 13.5833 4.84712 13.5833 5.33335C13.5833 4.84712 13.3902 4.38081 13.0464 4.03699C12.7025 3.69317 12.2362 3.50002 11.75 3.50002C12.2362 3.50002 12.7025 3.30687 13.0464 2.96305C13.3902 2.61923 13.5833 2.15292 13.5833 1.66669Z" stroke="#64748B" stroke-width="2" stroke-linecap="round" stroke-linejoin="round"/>
<path id="Vector_3" d="M16.3334 7.16669V9.00002M15.4167 8.08335H17.2501H15.4167Z" stroke="#64748B" stroke-width="2" stroke-linecap="round" stroke-linejoin="round"/>
</g>
</svg>
