<svg width="22" height="20" viewBox="0 0 22 20" fill="none" xmlns="http://www.w3.org/2000/svg">
<g id="Group">
<path id="Vector" d="M2 1L20 19" stroke="#0F172A" stroke-width="1.5" stroke-linecap="round" stroke-linejoin="round"/>
<path id="Vector_2" d="M9.58396 8.587C9.20868 8.96201 8.99775 9.47075 8.99756 10.0013C8.99737 10.5318 9.20795 11.0407 9.58296 11.416C9.95798 11.7913 10.4667 12.0022 10.9973 12.0024C11.5278 12.0026 12.0367 11.792 12.412 11.417" stroke="#0F172A" stroke-width="1.5" stroke-linecap="round" stroke-linejoin="round"/>
<path id="Vector_3" d="M8.363 3.365C9.22042 3.11972 10.1082 2.99684 11 3C15 3 18.333 5.333 21 10C20.222 11.361 19.388 12.524 18.497 13.488M16.357 15.349C14.726 16.449 12.942 17 11 17C7 17 3.667 14.667 1 10C2.369 7.605 3.913 5.825 5.632 4.659" stroke="#0F172A" stroke-width="1.5" stroke-linecap="round" stroke-linejoin="round"/>
</g>
</svg>
