<svg width="28" height="29" viewBox="0 0 28 29" fill="none" xmlns="http://www.w3.org/2000/svg">
<path fill-rule="evenodd" clip-rule="evenodd" d="M0.529798 4.87651C0 6.15556 0 7.77703 0 11.02V17.98C0 21.2229 0 22.8444 0.529798 24.1235C1.2362 25.8289 2.59113 27.1838 4.29652 27.8902C5.57557 28.42 7.19704 28.42 10.44 28.42H17.4C20.643 28.42 22.2644 28.42 23.5435 27.8902C25.2489 27.1838 26.6038 25.8289 27.3102 24.1235C27.84 22.8444 27.84 21.2229 27.84 17.98V11.02C27.84 7.77703 27.84 6.15556 27.3102 4.87651C26.6038 3.17111 25.2489 1.81618 23.5435 1.10979C22.2644 0.579987 20.643 0.579987 17.4 0.579987H10.44C7.19705 0.579987 5.57557 0.579987 4.29652 1.10979C2.59113 1.81618 1.2362 3.17111 0.529798 4.87651ZM16.0557 8.20214C16.0856 8.09385 15.9594 8.01056 15.8716 8.08056L8.10221 14.2709C8.02806 14.33 8.05225 14.4482 8.14364 14.4734L12.2851 15.6162C12.3468 15.6333 12.3831 15.6971 12.366 15.7589L11.0519 20.5215C11.022 20.6298 11.1481 20.7131 11.236 20.6431L19.0053 14.4528C19.0795 14.3937 19.0553 14.2754 18.9639 14.2502L14.8225 13.1074C14.7607 13.0904 14.7245 13.0265 14.7415 12.9648L16.0557 8.20214Z" fill="#2563E8"/>
</svg>
