<svg width="22" height="22" viewBox="0 0 22 22" fill="none" xmlns="http://www.w3.org/2000/svg">
<g id="layout-grid">
<g id="Vector">
<path d="M8.25008 3.66666H4.58341C4.07715 3.66666 3.66675 4.07706 3.66675 4.58332V8.24999C3.66675 8.75625 4.07715 9.16666 4.58341 9.16666H8.25008C8.75634 9.16666 9.16675 8.75625 9.16675 8.24999V4.58332C9.16675 4.07706 8.75634 3.66666 8.25008 3.66666Z" fill="#2563EB"/>
<path d="M17.4167 3.66666H13.7501C13.2438 3.66666 12.8334 4.07706 12.8334 4.58332V8.24999C12.8334 8.75625 13.2438 9.16666 13.7501 9.16666H17.4167C17.923 9.16666 18.3334 8.75625 18.3334 8.24999V4.58332C18.3334 4.07706 17.923 3.66666 17.4167 3.66666Z" fill="#2563EB"/>
<path d="M8.25008 12.8333H4.58341C4.07715 12.8333 3.66675 13.2437 3.66675 13.75V17.4167C3.66675 17.9229 4.07715 18.3333 4.58341 18.3333H8.25008C8.75634 18.3333 9.16675 17.9229 9.16675 17.4167V13.75C9.16675 13.2437 8.75634 12.8333 8.25008 12.8333Z" fill="#2563EB"/>
<path d="M17.4167 12.8333H13.7501C13.2438 12.8333 12.8334 13.2437 12.8334 13.75V17.4167C12.8334 17.9229 13.2438 18.3333 13.7501 18.3333H17.4167C17.923 18.3333 18.3334 17.9229 18.3334 17.4167V13.75C18.3334 13.2437 17.923 12.8333 17.4167 12.8333Z" fill="#2563EB"/>
<path d="M8.25008 3.66666H4.58341C4.07715 3.66666 3.66675 4.07706 3.66675 4.58332V8.24999C3.66675 8.75625 4.07715 9.16666 4.58341 9.16666H8.25008C8.75634 9.16666 9.16675 8.75625 9.16675 8.24999V4.58332C9.16675 4.07706 8.75634 3.66666 8.25008 3.66666Z" stroke="#2563EB" stroke-width="2" stroke-linecap="round" stroke-linejoin="round"/>
<path d="M17.4167 3.66666H13.7501C13.2438 3.66666 12.8334 4.07706 12.8334 4.58332V8.24999C12.8334 8.75625 13.2438 9.16666 13.7501 9.16666H17.4167C17.923 9.16666 18.3334 8.75625 18.3334 8.24999V4.58332C18.3334 4.07706 17.923 3.66666 17.4167 3.66666Z" stroke="#2563EB" stroke-width="2" stroke-linecap="round" stroke-linejoin="round"/>
<path d="M8.25008 12.8333H4.58341C4.07715 12.8333 3.66675 13.2437 3.66675 13.75V17.4167C3.66675 17.9229 4.07715 18.3333 4.58341 18.3333H8.25008C8.75634 18.3333 9.16675 17.9229 9.16675 17.4167V13.75C9.16675 13.2437 8.75634 12.8333 8.25008 12.8333Z" stroke="#2563EB" stroke-width="2" stroke-linecap="round" stroke-linejoin="round"/>
<path d="M17.4167 12.8333H13.7501C13.2438 12.8333 12.8334 13.2437 12.8334 13.75V17.4167C12.8334 17.9229 13.2438 18.3333 13.7501 18.3333H17.4167C17.923 18.3333 18.3334 17.9229 18.3334 17.4167V13.75C18.3334 13.2437 17.923 12.8333 17.4167 12.8333Z" stroke="#2563EB" stroke-width="2" stroke-linecap="round" stroke-linejoin="round"/>
</g>
</g>
</svg>
