<svg width="18" height="18" viewBox="0 0 18 18" fill="none" xmlns="http://www.w3.org/2000/svg">
<g id="Group">
<path id="Vector" d="M5.33325 17.25H12.6666" stroke="#64748B" stroke-width="1.5" stroke-linecap="round" stroke-linejoin="round"/>
<path id="Vector_2" d="M9 13.5833V17.25" stroke="#64748B" stroke-width="1.5" stroke-linecap="round" stroke-linejoin="round"/>
<path id="Vector_3" d="M4.41675 1.66667H13.5834" stroke="#64748B" stroke-width="1.5" stroke-linecap="round" stroke-linejoin="round"/>
<path id="Vector_4" d="M13.5834 1.66667V9C13.5834 10.2156 13.1005 11.3814 12.241 12.2409C11.3814 13.1005 10.2157 13.5833 9.00008 13.5833C7.78451 13.5833 6.61872 13.1005 5.75918 12.2409C4.89963 11.3814 4.41675 10.2156 4.41675 9V1.66667" stroke="#64748B" stroke-width="1.5" stroke-linecap="round" stroke-linejoin="round"/>
<path id="Vector_5" d="M2.58333 8.08334C3.59586 8.08334 4.41667 7.26253 4.41667 6.25001C4.41667 5.23748 3.59586 4.41667 2.58333 4.41667C1.57081 4.41667 0.75 5.23748 0.75 6.25001C0.75 7.26253 1.57081 8.08334 2.58333 8.08334Z" stroke="#64748B" stroke-width="1.5" stroke-linecap="round" stroke-linejoin="round"/>
<path id="Vector_6" d="M15.4166 8.08334C16.4291 8.08334 17.2499 7.26253 17.2499 6.25001C17.2499 5.23748 16.4291 4.41667 15.4166 4.41667C14.4041 4.41667 13.5833 5.23748 13.5833 6.25001C13.5833 7.26253 14.4041 8.08334 15.4166 8.08334Z" stroke="#64748B" stroke-width="1.5" stroke-linecap="round" stroke-linejoin="round"/>
</g>
</svg>
