<svg width="19" height="18" viewBox="0 0 19 18" fill="none" xmlns="http://www.w3.org/2000/svg">
<g id="Group">
<path id="Vector" d="M0.75 16.3333L1.94167 12.7583C0.911741 11.2351 0.539161 9.43122 0.8932 7.68212C1.24724 5.93301 2.30381 4.35771 3.86645 3.24909C5.4291 2.14048 7.39149 1.574 9.38875 1.65498C11.386 1.73596 13.2822 2.45889 14.7248 3.68935C16.1675 4.91982 17.0583 6.57409 17.2317 8.34458C17.4052 10.1151 16.8494 11.8813 15.6677 13.3149C14.4861 14.7484 12.7589 15.7518 10.8075 16.1384C8.85602 16.525 6.81302 16.2685 5.05833 15.4167L0.75 16.3333Z" stroke="#64748B" stroke-width="1.5" stroke-linecap="round" stroke-linejoin="round"/>
<path id="Vector_2" d="M9 9V9.00917" stroke="#64748B" stroke-width="2" stroke-linecap="round" stroke-linejoin="round"/>
<path id="Vector_3" d="M5.33325 9V9.00917" stroke="#64748B" stroke-width="2" stroke-linecap="round" stroke-linejoin="round"/>
<path id="Vector_4" d="M12.6667 9V9.00917" stroke="#64748B" stroke-width="2" stroke-linecap="round" stroke-linejoin="round"/>
</g>
</svg>
