<svg width="16" height="16" viewBox="0 0 16 16" fill="none" xmlns="http://www.w3.org/2000/svg">
<g id="Group">
<path id="Vector" d="M4.66683 1.33334H3.00016C2.07969 1.33334 1.3335 2.07954 1.3335 3.00001V13C1.3335 13.9205 2.07969 14.6667 3.00016 14.6667H4.66683C5.5873 14.6667 6.3335 13.9205 6.3335 13V3.00001C6.3335 2.07954 5.5873 1.33334 4.66683 1.33334Z" stroke="#2563EB" stroke-width="1.5" stroke-linecap="round" stroke-linejoin="round"/>
<path id="Vector_2" d="M13.0003 1.33334H11.3337C10.4132 1.33334 9.66699 2.07954 9.66699 3.00001V8.00001C9.66699 8.92048 10.4132 9.66668 11.3337 9.66668H13.0003C13.9208 9.66668 14.667 8.92048 14.667 8.00001V3.00001C14.667 2.07954 13.9208 1.33334 13.0003 1.33334Z" stroke="#2563EB" stroke-width="1.5" stroke-linecap="round" stroke-linejoin="round"/>
</g>
</svg>
