<svg width="16" height="16" viewBox="0 0 16 16" fill="none" xmlns="http://www.w3.org/2000/svg">
<g id="Group">
<path id="Vector" d="M13.0002 1.33334H3.00016C2.07969 1.33334 1.3335 2.07954 1.3335 3.00001V4.66668C1.3335 5.58715 2.07969 6.33334 3.00016 6.33334H13.0002C13.9206 6.33334 14.6668 5.58715 14.6668 4.66668V3.00001C14.6668 2.07954 13.9206 1.33334 13.0002 1.33334Z" stroke="#64748B" stroke-width="1.5" stroke-linecap="round" stroke-linejoin="round"/>
<path id="Vector_2" d="M13.0002 9.66669H3.00016C2.07969 9.66669 1.3335 10.4129 1.3335 11.3334V13C1.3335 13.9205 2.07969 14.6667 3.00016 14.6667H13.0002C13.9206 14.6667 14.6668 13.9205 14.6668 13V11.3334C14.6668 10.4129 13.9206 9.66669 13.0002 9.66669Z" stroke="#64748B" stroke-width="1.5" stroke-linecap="round" stroke-linejoin="round"/>
</g>
</svg>
