<svg width="16" height="16" viewBox="0 0 16 16" fill="none" xmlns="http://www.w3.org/2000/svg">
<g id="Group">
<path id="Vector" d="M1.3335 11.3333L1.3335 13C1.3335 13.9205 2.07969 14.6667 3.00016 14.6667L13.0002 14.6667C13.9206 14.6667 14.6668 13.9205 14.6668 13L14.6668 11.3333C14.6668 10.4128 13.9206 9.66666 13.0002 9.66666L3.00016 9.66666C2.07969 9.66666 1.3335 10.4128 1.3335 11.3333Z" stroke="#64748B" stroke-width="1.5" stroke-linecap="round" stroke-linejoin="round"/>
<path id="Vector_2" d="M1.3335 2.99998L1.3335 4.66665C1.3335 5.58712 2.07969 6.33331 3.00016 6.33331L8.00016 6.33331C8.92064 6.33331 9.66683 5.58712 9.66683 4.66665L9.66683 2.99998C9.66683 2.0795 8.92064 1.33331 8.00016 1.33331L3.00016 1.33331C2.07969 1.33331 1.3335 2.0795 1.3335 2.99998Z" stroke="#64748B" stroke-width="1.5" stroke-linecap="round" stroke-linejoin="round"/>
</g>
</svg>
